<svg width="42" height="37" viewBox="0 0 42 37" fill="none" xmlns="http://www.w3.org/2000/svg">
<g id="33-chevron-down 3" clip-path="url(#clip0_25_178)">
<g id="Clip path group">
<mask id="mask0_25_178" style="mask-type:luminance" maskUnits="userSpaceOnUse" x="0" y="0" width="42" height="37">
<g id="a">
<path id="Vector" d="M0 36.4059L0 0.790926H41.8148V36.4059H0Z" fill="white"/>
</g>
</mask>
<g mask="url(#mask0_25_178)">
<g id="Group">
<g id="Clip path group_2">
<mask id="mask1_25_178" style="mask-type:luminance" maskUnits="userSpaceOnUse" x="0" y="0" width="42" height="37">
<g id="d">
<path id="Vector_2" d="M41.8148 36.4059V0.790926H-1.27664e-05V36.4059H41.8148Z" fill="white"/>
</g>
</mask>
<g mask="url(#mask1_25_178)">
<g id="Group_2">
<g id="Group_3">
<g id="Group 43">
<path id="Vector_3" d="M33.0487 18.7565C33.0758 18.7334 33.0973 18.7061 33.1119 18.6759C33.1266 18.6458 33.1342 18.6135 33.1342 18.5808C33.1342 18.5482 33.1266 18.5159 33.1119 18.4858C33.0973 18.4556 33.0758 18.4282 33.0487 18.4052L15.5833 3.52913C15.5562 3.50605 15.5241 3.48774 15.4887 3.47524C15.4533 3.46275 15.4154 3.45632 15.3771 3.45632C15.3387 3.45632 15.3008 3.46275 15.2654 3.47524C15.23 3.48774 15.1979 3.50605 15.1708 3.52913L9.73858 8.15593C9.71147 8.17899 9.68998 8.20637 9.67531 8.23652C9.66063 8.26666 9.65308 8.29897 9.65308 8.3316C9.65308 8.36423 9.66063 8.39654 9.67531 8.42668C9.68998 8.45683 9.71147 8.48421 9.73858 8.50727L21.5657 18.5808L9.73858 28.6544C9.71147 28.6775 9.68998 28.7048 9.67531 28.735C9.66063 28.7651 9.65308 28.7974 9.65308 28.8301C9.65308 28.8627 9.66063 28.895 9.67531 28.9251C9.68998 28.9553 9.71147 28.9827 9.73858 29.0057L15.1707 33.6325C15.1978 33.6556 15.23 33.6739 15.2654 33.6864C15.3008 33.6989 15.3387 33.7053 15.377 33.7053C15.4153 33.7053 15.4533 33.6989 15.4887 33.6864C15.5241 33.6739 15.5562 33.6556 15.5833 33.6325L33.0487 18.7565Z" fill="#A9B5DF"/>
</g>
<g id="Vector_4" style="mix-blend-mode:multiply" opacity="0.5">
<path d="M33.0487 18.7565C33.0758 18.7334 33.0973 18.7061 33.1119 18.6759C33.1266 18.6458 33.1341 18.6135 33.1341 18.5808C33.1341 18.5482 33.1266 18.5159 33.1119 18.4858C33.0973 18.4556 33.0758 18.4282 33.0487 18.4052L21.5657 18.5808L9.73857 28.6544C9.71147 28.6775 9.68997 28.7048 9.6753 28.735C9.66063 28.7651 9.65308 28.7974 9.65308 28.8301C9.65308 28.8627 9.66063 28.895 9.6753 28.9251C9.68997 28.9553 9.71147 28.9827 9.73857 29.0057L15.1707 33.6325C15.1978 33.6556 15.23 33.6739 15.2653 33.6864C15.3007 33.6989 15.3387 33.7053 15.377 33.7053C15.4153 33.7053 15.4533 33.6989 15.4887 33.6864C15.5241 33.6739 15.5562 33.6556 15.5833 33.6325L33.0487 18.7565Z" fill="#4BB3FD"/>
</g>
</g>
</g>
</g>
</g>
</g>
</g>
</g>
</g>
<defs>
<clipPath id="clip0_25_178">
<rect width="35.6149" height="41.8148" fill="white" transform="matrix(0 -1 1 0 0 36.4059)"/>
</clipPath>
</defs>
</svg>
