<svg width="42" height="36" viewBox="0 0 42 36" fill="none" xmlns="http://www.w3.org/2000/svg">
<g id="33-chevron-down 2" clip-path="url(#clip0_25_163)">
<g id="Clip path group">
<mask id="mask0_25_163" style="mask-type:luminance" maskUnits="userSpaceOnUse" x="0" y="0" width="42" height="36">
<g id="a">
<path id="Vector" d="M41.8148 0.270905L41.8148 35.8858L2.49235e-06 35.8858L2.49235e-06 0.270905L41.8148 0.270905Z" fill="white"/>
</g>
</mask>
<g mask="url(#mask0_25_163)">
<g id="Group">
<g id="Clip path group_2">
<mask id="mask1_25_163" style="mask-type:luminance" maskUnits="userSpaceOnUse" x="0" y="0" width="42" height="36">
<g id="d">
<path id="Vector_2" d="M0 0.270905L0 35.8858L41.8148 35.8858L41.8148 0.270905L0 0.270905Z" fill="white"/>
</g>
</mask>
<g mask="url(#mask1_25_163)">
<g id="Group_2">
<g id="Group_3">
<g id="Group 43">
<path id="Vector_3" d="M8.76613 17.9203C8.73903 17.9433 8.71752 17.9707 8.70285 18.0008C8.68818 18.031 8.68063 18.0633 8.68063 18.0959C8.68063 18.1286 8.68818 18.1609 8.70285 18.191C8.71752 18.2212 8.73903 18.2485 8.76613 18.2716L26.2315 33.1476C26.2586 33.1707 26.2907 33.189 26.3261 33.2015C26.3615 33.214 26.3994 33.2204 26.4377 33.2204C26.476 33.2204 26.514 33.214 26.5494 33.2015C26.5848 33.189 26.6169 33.1707 26.644 33.1476L32.0762 28.5208C32.1033 28.4978 32.1248 28.4704 32.1395 28.4402C32.1542 28.4101 32.1617 28.3778 32.1617 28.3452C32.1617 28.3125 32.1542 28.2802 32.1395 28.2501C32.1248 28.2199 32.1033 28.1925 32.0762 28.1695L20.249 18.0959L32.0762 8.02237C32.1033 7.9993 32.1248 7.97192 32.1395 7.94178C32.1542 7.91163 32.1617 7.87932 32.1617 7.84669C32.1617 7.81406 32.1542 7.78175 32.1395 7.75161C32.1248 7.72147 32.1033 7.69408 32.0762 7.67102L26.6441 3.04423C26.617 3.02115 26.5848 3.00284 26.5494 2.99035C26.514 2.97786 26.4761 2.97144 26.4378 2.97144C26.3995 2.97144 26.3615 2.97786 26.3261 2.99035C26.2907 3.00284 26.2586 3.02115 26.2315 3.04423L8.76613 17.9203Z" fill="#A9B5DF"/>
</g>
<g id="Vector_4" style="mix-blend-mode:multiply" opacity="0.5">
<path d="M8.76614 17.9203C8.73903 17.9433 8.71753 17.9707 8.70286 18.0008C8.68819 18.031 8.68064 18.0633 8.68064 18.0959C8.68064 18.1286 8.68819 18.1609 8.70286 18.191C8.71753 18.2211 8.73903 18.2485 8.76614 18.2716L20.2491 18.0959L32.0762 8.02237C32.1033 7.9993 32.1248 7.97192 32.1395 7.94178C32.1542 7.91163 32.1617 7.87932 32.1617 7.84669C32.1617 7.81406 32.1542 7.78175 32.1395 7.75161C32.1248 7.72147 32.1033 7.69408 32.0762 7.67102L26.6441 3.04423C26.617 3.02115 26.5848 3.00284 26.5494 2.99035C26.514 2.97786 26.4761 2.97144 26.4378 2.97144C26.3995 2.97144 26.3615 2.97786 26.3261 2.99035C26.2907 3.00284 26.2586 3.02115 26.2315 3.04423L8.76614 17.9203Z" fill="#4BB3FD"/>
</g>
</g>
</g>
</g>
</g>
</g>
</g>
</g>
</g>
<defs>
<clipPath id="clip0_25_163">
<rect width="35.6149" height="41.8148" fill="white" transform="matrix(0 1 -1 0 41.8148 0.270905)"/>
</clipPath>
</defs>
</svg>
