<svg width="27" height="27" viewBox="0 0 27 27" fill="none" xmlns="http://www.w3.org/2000/svg">
<path d="M13.5 1.80005C7.04879 1.80005 1.79999 7.04885 1.79999 13.5C1.79999 19.9512 7.04879 25.2 13.5 25.2C19.9512 25.2 25.2 19.9512 25.2 13.5C25.2 7.04885 19.9512 1.80005 13.5 1.80005ZM10.4994 5.40005H16.4988C19.3113 5.40005 21.6 7.68786 21.6 10.4995V16.4989C21.6 19.3114 19.3122 21.6 16.5006 21.6H10.5012C7.68866 21.6 5.39999 19.3122 5.39999 16.5006V10.5012C5.39999 7.68872 7.6878 5.40005 10.4994 5.40005ZM10.4994 7.20005C8.6805 7.20005 7.19999 8.68142 7.19999 10.5012V16.5006C7.19999 18.3195 8.68136 19.8001 10.5012 19.8001H16.5006C18.3195 19.8001 19.8 18.3187 19.8 16.4989V10.4995C19.8 8.68057 18.3186 7.20006 16.4988 7.20006L10.4994 7.20005ZM17.7012 8.69946C18.0324 8.69946 18.3006 8.96768 18.3006 9.29888C18.3006 9.63008 18.0324 9.90005 17.7012 9.90005C17.37 9.90005 17.1 9.63008 17.1 9.29888C17.1 8.96768 17.37 8.69946 17.7012 8.69946ZM13.5 9.00005C15.9813 9.00005 18 11.0187 18 13.5C18 15.9813 15.9813 18 13.5 18C11.0187 18 8.99999 15.9813 8.99999 13.5C8.99999 11.0187 11.0187 9.00005 13.5 9.00005ZM13.5 10.8C12.0088 10.8 10.8 12.0089 10.8 13.5C10.8 14.9912 12.0088 16.2 13.5 16.2C14.9911 16.2 16.2 14.9912 16.2 13.5C16.2 12.0089 14.9911 10.8 13.5 10.8Z" fill="white"/>
</svg>
