<svg width="25" height="25" viewBox="0 0 25 25" fill="none" xmlns="http://www.w3.org/2000/svg">
<path d="M12.5 0.620117C5.94524 0.620117 0.619995 5.94536 0.619995 12.5001C0.619995 18.4504 5.00886 23.3748 10.725 24.2335L11.3451 24.3274V14.966H8.53859V13.0654H11.3451V10.5416C11.3451 8.9874 11.7181 7.9638 12.3355 7.3216C12.9529 6.6794 13.8651 6.35551 15.1346 6.35551C16.1497 6.35551 16.5446 6.41702 16.9202 6.46309V8.01875H15.5987C14.8488 8.01875 14.2336 8.43711 13.9143 8.99434C13.595 9.55157 13.4956 10.2169 13.4956 10.8949V13.0644H16.8021L16.5078 14.9649H13.4956V24.3421L14.1084 24.2588C19.9057 23.4726 24.38 18.5086 24.38 12.5001C24.38 5.94536 19.0548 0.620117 12.5 0.620117ZM12.5 1.70012C18.4711 1.70012 23.3 6.52903 23.3 12.5001C23.3 17.7542 19.5393 22.0753 14.5756 23.048V16.0449H17.4338L18.0614 11.9844H14.5756V10.8949C14.5756 10.3346 14.6781 9.83267 14.8509 9.53117C15.0237 9.22967 15.1902 9.09875 15.5987 9.09875H18.0002V5.48539L17.5319 5.4221C17.208 5.37828 16.4686 5.27551 15.1346 5.27551C13.6749 5.27551 12.422 5.67313 11.5571 6.57277C10.6922 7.4724 10.2651 8.81198 10.2651 10.5416V11.9854H7.45859V16.046H10.2651V23.0143C5.38118 21.9797 1.7 17.6973 1.7 12.5001C1.7 6.52903 6.52891 1.70012 12.5 1.70012Z" fill="white"/>
</svg>
